<svg aria-hidden="true" style="position: absolute; width: 0; height: 0; overflow: hidden;" version="1.1" xmlns="http://www.w3.org/2000/svg" xmlns:xlink="http://www.w3.org/1999/xlink">
<defs>
<symbol id="icon-eye-show" viewBox="0 0 32 32">
<path d="M15.993 20.667c2.577 0 4.667-2.089 4.667-4.667s-2.089-4.667-4.667-4.667c-2.577 0-4.667 2.089-4.667 4.667s2.089 4.667 4.667 4.667zM15.993 17.993c-1.1 0-1.992-0.892-1.992-1.993s0.892-1.993 1.992-1.993c1.101 0 1.993 0.892 1.993 1.993s-0.892 1.993-1.993 1.993z"></path>
<path d="M16 6.667c-6.415 0-10.778 3.479-13.081 5.973-1.776 1.923-1.776 4.797 0 6.721 2.303 2.494 6.666 5.973 13.081 5.973s10.778-3.479 13.081-5.973c1.776-1.923 1.776-4.797 0-6.721-2.303-2.494-6.666-5.973-13.081-5.973zM4.878 14.449c2.040-2.209 5.744-5.115 11.122-5.115s9.082 2.907 11.122 5.115c0.833 0.902 0.833 2.201 0 3.102-2.040 2.209-5.744 5.115-11.122 5.115s-9.082-2.907-11.122-5.115c-0.833-0.902-0.833-2.201 0-3.102z"></path>
</symbol>
<symbol id="icon-pan" viewBox="0 0 32 32">
<path stroke-linejoin="miter" stroke-linecap="round" stroke-miterlimit="4" stroke-width="2" d="M14.667 28h13.333"></path>
<path stroke-linejoin="round" stroke-linecap="round" stroke-miterlimit="4" stroke-width="2" d="M22.513 6.432c-1.825-1.6-4.614-1.432-6.23 0.375 0 0-8.031 8.983-10.816 12.1-2.789 3.116-0.744 7.421-0.744 7.421s4.603 1.443 7.349-1.629c2.748-3.073 10.82-12.099 10.82-12.099 1.616-1.807 1.445-4.569-0.379-6.169z"></path>
<path stroke-linejoin="round" stroke-linecap="round" stroke-miterlimit="4" stroke-width="2" d="M13.814 9.723l6.087 5.316"></path>
</symbol>
<symbol id="icon-delete" viewBox="0 0 32 32">
<path d="M12 14.667c0-0.736 0.597-1.333 1.333-1.333s1.333 0.597 1.333 1.333v8c0 0.736-0.597 1.333-1.333 1.333s-1.333-0.597-1.333-1.333v-8z"></path>
<path d="M18.667 13.333c-0.736 0-1.333 0.597-1.333 1.333v8c0 0.736 0.597 1.333 1.333 1.333s1.333-0.597 1.333-1.333v-8c0-0.736-0.597-1.333-1.333-1.333z"></path>
<path d="M11.375 1.333c-4.010 0-7.113 3.515-6.615 7.494l2.292 18.336c0.25 2.002 1.952 3.504 3.969 3.504h9.959c2.017 0 3.719-1.502 3.969-3.504l2.292-18.336c0.497-3.979-2.605-7.494-6.615-7.494h-9.25zM7.602 6.667c0.546-1.539 2.014-2.667 3.773-2.667h9.25c1.759 0 3.227 1.127 3.773 2.667h-16.796zM7.511 9.333l2.187 17.499c0.083 0.667 0.651 1.168 1.323 1.168h9.959c0.672 0 1.24-0.501 1.323-1.168l2.187-17.499h-16.979z"></path>
</symbol>
<symbol id="icon-arrow-next" viewBox="0 0 32 32">
<path fill="#fff" style="fill: var(--color1, #fff)" d="M10.428 27.642c0.521 0.521 1.365 0.521 1.886 0l8.859-8.859c1.562-1.562 1.562-4.093 0.001-5.656l-8.761-8.767c-0.521-0.521-1.365-0.521-1.886 0s-0.521 1.365 0 1.886l8.763 8.763c0.521 0.521 0.521 1.365 0 1.886l-8.863 8.863c-0.521 0.521-0.521 1.365 0 1.886z"></path>
</symbol>
</defs>
</svg>
